<svg width="198" height="20" viewBox="0 0 198 20" fill="none" xmlns="http://www.w3.org/2000/svg">
<path d="M3.35791 13.5376V19.7876H0.831055V0.256348H6.37305C7.94369 0.467936 9.27018 1.11491 10.3525 2.19727C11.6465 3.49935 12.2935 5.06185 12.2935 6.88477C12.2935 8.72396 11.6465 10.2946 10.3525 11.5967C9.05859 12.8906 7.49609 13.5376 5.66504 13.5376H3.35791ZM3.35791 2.79541V10.9985H5.66504C6.78809 10.9985 7.74837 10.5998 8.5459 9.80225C9.35156 8.99658 9.75439 8.02409 9.75439 6.88477C9.75439 5.75358 9.35156 4.78923 8.5459 3.9917C7.74837 3.19417 6.78809 2.79541 5.66504 2.79541H3.35791Z" fill="url('#paint0_linear_14_50')"></path>
<path d="M19.8472 2.79541V10.9985H22.1543C23.2773 10.9985 24.2376 10.5998 25.0352 9.80225C25.8408 8.99658 26.2437 8.02409 26.2437 6.88477C26.2437 5.75358 25.8408 4.78923 25.0352 3.9917C24.2376 3.19417 23.2773 2.79541 22.1543 2.79541H19.8472ZM22.1543 13.5376H19.8472V19.7876H17.3203V0.256348H22.8623C24.4329 0.467936 25.7594 1.11491 26.8418 2.19727C28.1357 3.49935 28.7827 5.06185 28.7827 6.88477C28.7827 8.72396 28.1357 10.2946 26.8418 11.5967C25.9466 12.4919 25.263 12.9964 24.791 13.1104L29.1245 19.7876H26.0605L22.1543 13.5376Z" fill="url('#paint1_linear_14_50')"></path>
<path d="M43.8193 0C46.5781 0 48.9341 0.976562 50.8872 2.92969C52.8403 4.88281 53.8169 7.23877 53.8169 9.99756C53.8169 12.7563 52.8403 15.1123 50.8872 17.0654C48.9341 19.0186 46.5781 19.9951 43.8193 19.9951C41.0605 19.9951 38.7046 19.0186 36.7515 17.0654C34.7983 15.1123 33.8218 12.7563 33.8218 9.99756C33.8218 7.23877 34.7983 4.88281 36.7515 2.92969C38.7046 0.976562 41.0605 0 43.8193 0ZM43.8193 2.55127C41.7604 2.55127 40.0026 3.27962 38.5459 4.73633C37.0973 6.1849 36.373 7.93864 36.373 9.99756C36.373 12.0565 37.1014 13.8143 38.5581 15.271C40.0148 16.7277 41.7686 17.4561 43.8193 17.4561C45.8783 17.4561 47.632 16.7277 49.0806 15.271C50.5373 13.8143 51.2656 12.0565 51.2656 9.99756C51.2656 7.93864 50.5373 6.1849 49.0806 4.73633C47.632 3.27962 45.8783 2.55127 43.8193 2.55127Z" fill="url('#paint2_linear_14_50')"></path>
<path d="M62.2251 2.83203V17.2241C64.2352 17.2241 65.8831 16.5771 67.1689 15.2832C68.6175 13.8346 69.3418 12.0809 69.3418 10.022C69.3418 7.97119 68.6175 6.21745 67.1689 4.76074C65.8831 3.47494 64.2352 2.83203 62.2251 2.83203ZM61.5537 0.256348C64.7275 0.272624 67.2015 1.17188 68.9756 2.9541C70.9206 4.91536 71.8931 7.27132 71.8931 10.022C71.8931 12.7808 70.9206 15.1367 68.9756 17.0898C67.2015 18.8721 64.7275 19.7713 61.5537 19.7876H59.6982V0.256348H61.5537Z" fill="url('#paint3_linear_14_50')"></path>
<path d="M87.9795 0.256348V2.7832H79.9839V8.75244H87.9795V11.2793H79.9839V17.2485H87.9795V19.7876H77.457V0.256348H87.9795Z" fill="url('#paint4_linear_14_50')"></path>
<path d="M108.961 15.1367L110.853 16.8335C108.542 18.9412 106.096 19.9951 103.517 19.9951C100.758 19.9951 98.4059 19.0226 96.4609 17.0776C94.516 15.1326 93.5435 12.7808 93.5435 10.022C93.5435 7.27132 94.516 4.91943 96.4609 2.96631C98.4059 1.01318 100.758 0.0366211 103.517 0.0366211C106.096 0.0366211 108.542 1.09049 110.853 3.19824L108.961 4.91943C107.219 3.37321 105.405 2.6001 103.517 2.6001C101.474 2.6001 99.7243 3.32438 98.2676 4.77295C96.819 6.22152 96.0947 7.97119 96.0947 10.022C96.0947 12.0809 96.819 13.8346 98.2676 15.2832C99.7243 16.7318 101.474 17.4561 103.517 17.4561C105.405 17.4561 107.219 16.6829 108.961 15.1367Z" fill="url('#paint5_linear_14_50')"></path>
<path d="M124.144 10.3516L122.472 5.77393L120.812 10.3516H124.144ZM123.155 0.256348L130.26 19.7876H127.574L125.06 12.8784H119.884L117.381 19.7876H114.684L121.788 0.256348H123.155Z" fill="url('#paint6_linear_14_50')"></path>
<path d="M135.201 0.256348H137.508L145.565 14.1968V0.256348H148.104V19.7876H145.895L137.728 5.67627V19.7876H135.201V0.256348Z" fill="url('#paint7_linear_14_50')"></path>
<path d="M160.15 2.7832V19.7876H157.611V2.7832H153.058V0.256348H164.703V2.7832H160.15Z" fill="url('#paint8_linear_14_50')"></path>
<path d="M180.167 0.256348V2.7832H172.171V8.75244H180.167V11.2793H172.171V17.2485H180.167V19.7876H169.645V0.256348H180.167Z" fill="url('#paint9_linear_14_50')"></path>
<path d="M188.563 2.79541V10.9985H190.87C191.993 10.9985 192.953 10.5998 193.751 9.80225C194.557 8.99658 194.959 8.02409 194.959 6.88477C194.959 5.75358 194.557 4.78923 193.751 3.9917C192.953 3.19417 191.993 2.79541 190.87 2.79541H188.563ZM190.87 13.5376H188.563V19.7876H186.036V0.256348H191.578C193.149 0.467936 194.475 1.11491 195.558 2.19727C196.852 3.49935 197.499 5.06185 197.499 6.88477C197.499 8.72396 196.852 10.2946 195.558 11.5967C194.662 12.4919 193.979 12.9964 193.507 13.1104L197.84 19.7876H194.776L190.87 13.5376Z" fill="url('#paint10_linear_14_50')"></path>
<defs>
<linearGradient id="paint0_linear_14_50" x1="0.831055" y1="9.99756" x2="197.84" y2="9.99756" gradientUnits="userSpaceOnUse">
<stop offset="0.119" stop-color="#D7B068"></stop>
<stop offset="0.464" stop-color="#845903"></stop>
<stop offset="1" stop-color="#E5B108"></stop>
</linearGradient>
<linearGradient id="paint1_linear_14_50" x1="0.831055" y1="9.99756" x2="197.84" y2="9.99756" gradientUnits="userSpaceOnUse">
<stop offset="0.119" stop-color="#D7B068"></stop>
<stop offset="0.464" stop-color="#845903"></stop>
<stop offset="1" stop-color="#E5B108"></stop>
</linearGradient>
<linearGradient id="paint2_linear_14_50" x1="0.831055" y1="9.99756" x2="197.84" y2="9.99756" gradientUnits="userSpaceOnUse">
<stop offset="0.119" stop-color="#D7B068"></stop>
<stop offset="0.464" stop-color="#845903"></stop>
<stop offset="1" stop-color="#E5B108"></stop>
</linearGradient>
<linearGradient id="paint3_linear_14_50" x1="0.831055" y1="9.99756" x2="197.84" y2="9.99756" gradientUnits="userSpaceOnUse">
<stop offset="0.119" stop-color="#D7B068"></stop>
<stop offset="0.464" stop-color="#845903"></stop>
<stop offset="1" stop-color="#E5B108"></stop>
</linearGradient>
<linearGradient id="paint4_linear_14_50" x1="0.831055" y1="9.99756" x2="197.84" y2="9.99756" gradientUnits="userSpaceOnUse">
<stop offset="0.119" stop-color="#D7B068"></stop>
<stop offset="0.464" stop-color="#845903"></stop>
<stop offset="1" stop-color="#E5B108"></stop>
</linearGradient>
<linearGradient id="paint5_linear_14_50" x1="0.831055" y1="9.99756" x2="197.84" y2="9.99756" gradientUnits="userSpaceOnUse">
<stop offset="0.119" stop-color="#D7B068"></stop>
<stop offset="0.464" stop-color="#845903"></stop>
<stop offset="1" stop-color="#E5B108"></stop>
</linearGradient>
<linearGradient id="paint6_linear_14_50" x1="0.831055" y1="9.99756" x2="197.84" y2="9.99756" gradientUnits="userSpaceOnUse">
<stop offset="0.119" stop-color="#D7B068"></stop>
<stop offset="0.464" stop-color="#845903"></stop>
<stop offset="1" stop-color="#E5B108"></stop>
</linearGradient>
<linearGradient id="paint7_linear_14_50" x1="0.831055" y1="9.99756" x2="197.84" y2="9.99756" gradientUnits="userSpaceOnUse">
<stop offset="0.119" stop-color="#D7B068"></stop>
<stop offset="0.464" stop-color="#845903"></stop>
<stop offset="1" stop-color="#E5B108"></stop>
</linearGradient>
<linearGradient id="paint8_linear_14_50" x1="0.831055" y1="9.99756" x2="197.84" y2="9.99756" gradientUnits="userSpaceOnUse">
<stop offset="0.119" stop-color="#D7B068"></stop>
<stop offset="0.464" stop-color="#845903"></stop>
<stop offset="1" stop-color="#E5B108"></stop>
</linearGradient>
<linearGradient id="paint9_linear_14_50" x1="0.831055" y1="9.99756" x2="197.84" y2="9.99756" gradientUnits="userSpaceOnUse">
<stop offset="0.119" stop-color="#D7B068"></stop>
<stop offset="0.464" stop-color="#845903"></stop>
<stop offset="1" stop-color="#E5B108"></stop>
</linearGradient>
<linearGradient id="paint10_linear_14_50" x1="0.831055" y1="9.99756" x2="197.84" y2="9.99756" gradientUnits="userSpaceOnUse">
<stop offset="0.119" stop-color="#D7B068"></stop>
<stop offset="0.464" stop-color="#845903"></stop>
<stop offset="1" stop-color="#E5B108"></stop>
</linearGradient>
</defs>
</svg>
