<svg width="60" height="60" viewBox="0 0 60 60" fill="none" xmlns="http://www.w3.org/2000/svg">
<path d="M30 5C16.1927 5 5 16.1927 5 30C5 43.8073 16.1927 55 30 55C43.8073 55 55 43.8073 55 30C55 16.1927 43.8073 5 30 5ZM39.6146 33.2057C39.6146 33.2057 41.8255 35.388 42.3698 36.401C42.3854 36.4236 42.395 36.441 42.3984 36.4531C42.6189 36.8229 42.6736 37.1154 42.5625 37.3307C42.3802 37.6901 41.7552 37.8672 41.5417 37.8828H37.6354C37.3646 37.8828 36.7969 37.8125 36.1094 37.3385C35.5807 36.9687 35.0599 36.362 34.5521 35.7708C33.7943 34.8906 33.138 34.1302 32.4766 34.1302C32.3925 34.1298 32.309 34.143 32.2292 34.1693C31.7292 34.3307 31.0885 35.0443 31.0885 36.9453C31.0885 37.5391 30.6198 37.8802 30.2891 37.8802H28.5C27.8906 37.8802 24.7161 37.6667 21.9036 34.7005C18.4609 31.0677 15.362 23.7812 15.3359 23.7135C15.1406 23.2422 15.5443 22.9896 15.9844 22.9896H19.9297C20.4557 22.9896 20.6276 23.3099 20.7474 23.5937C20.888 23.9245 21.4036 25.2396 22.25 26.7188C23.6224 29.1302 24.4635 30.1094 25.138 30.1094C25.2645 30.1079 25.3887 30.0757 25.5 30.0156C26.3802 29.526 26.2161 26.388 26.1771 25.737C26.1771 25.6146 26.1745 24.3333 25.724 23.7187C25.401 23.2734 24.8516 23.1042 24.5182 23.0417C24.6531 22.8555 24.8309 22.7045 25.0365 22.6016C25.6406 22.2995 26.7292 22.2552 27.8099 22.2552H28.4115C29.5833 22.2708 29.8854 22.3464 30.3099 22.4531C31.1693 22.6589 31.1875 23.2135 31.112 25.112C31.0885 25.651 31.0651 26.2604 31.0651 26.9792L31.0573 27.4792C31.0312 28.4453 31 29.5417 31.6823 29.9922C31.7703 30.0502 31.8738 30.0802 31.9792 30.0781C32.2161 30.0781 32.9297 30.0781 34.862 26.763C35.4557 25.6948 35.9734 24.5862 36.4115 23.4453C36.4505 23.3776 36.5651 23.1693 36.7005 23.0885C36.8015 23.0405 36.9116 23.0148 37.0234 23.013H41.6615C42.1667 23.013 42.513 23.0885 42.5781 23.2839C42.6927 23.5937 42.5573 24.5391 40.4401 27.4062L39.4948 28.6536C37.5755 31.1693 37.5755 31.2969 39.6146 33.2057Z" fill="url('#paint0_linear_31_6')"></path>
<defs>
<linearGradient id="paint0_linear_31_6" x1="5" y1="30" x2="55" y2="30" gradientUnits="userSpaceOnUse">
<stop stop-color="white"></stop>
<stop offset="0.539" stop-color="#AEAEAE"></stop>
<stop offset="1" stop-color="white"></stop>
</linearGradient>
</defs>
</svg>
