<svg xmlns="http://www.w3.org/2000/svg" width="40" height="40" fill="none"><path fill="url('#a')" d="M33.6 20a13.59 13.59 0 1 0-27.2 0 13.59 13.59 0 1 0 27.2 0ZM8 20c0-6.64 5.36-12 12-12s12 5.36 12 12-5.36 12-12 12S8 26.64 8 20Z"></path><path fill="url('#b')" d="M21.36 26.64 14.72 20l6.64-6.64-1.12-1.12L12.48 20l7.76 7.76 1.12-1.12Z"></path><path fill="url('#c')" d="M13.6 19.2v1.6h13.6v-1.6H13.6Z"></path><defs><linearGradient id="a" x1="20" x2="20" y1="6.4" y2="33.6" gradientUnits="userSpaceOnUse"><stop stop-color="#fff"></stop><stop offset=".54" stop-color="#AEAEAE"></stop><stop offset="1" stop-color="#fff"></stop></linearGradient><linearGradient id="b" x1="16.92" x2="16.92" y1="12.24" y2="27.76" gradientUnits="userSpaceOnUse"><stop stop-color="#fff"></stop><stop offset=".54" stop-color="#AEAEAE"></stop><stop offset="1" stop-color="#fff"></stop></linearGradient><linearGradient id="c" x1="20.4" x2="20.4" y1="19.2" y2="20.8" gradientUnits="userSpaceOnUse"><stop stop-color="#fff"></stop><stop offset=".54" stop-color="#AEAEAE"></stop><stop offset="1" stop-color="#fff"></stop></linearGradient></defs></svg>