<svg width="60" height="60" viewBox="0 0 60 60" fill="none" xmlns="http://www.w3.org/2000/svg">
<path fill-rule="evenodd" clip-rule="evenodd" d="M41.6899 6.56999C33.8245 4.81179 25.6678 4.81179 17.8024 6.56999L16.9549 6.75749C14.7418 7.25082 12.7091 8.34868 11.0831 9.92884C9.45699 11.509 8.30139 13.5095 7.7449 15.7075C5.75463 23.5642 5.75463 31.7932 7.7449 39.65C8.27567 41.7462 9.35184 43.6646 10.8641 45.2102C12.3763 46.7558 14.2708 47.8736 16.3549 48.45L17.5174 55.39C17.5545 55.6104 17.65 55.8168 17.794 55.9877C17.938 56.1586 18.1251 56.2878 18.336 56.3618C18.5468 56.4359 18.7737 56.452 18.9929 56.4086C19.2121 56.3652 19.4157 56.2638 19.5824 56.115L26.4099 50.0075C31.5351 50.3169 36.6784 49.9071 41.6899 48.79L42.5399 48.6025C44.753 48.1092 46.7857 47.0113 48.4117 45.4311C50.0378 43.851 51.1934 41.8505 51.7499 39.6525C53.7402 31.7957 53.7402 23.5667 51.7499 15.71C51.1932 13.5116 50.0372 11.511 48.4107 9.93078C46.7842 8.35059 44.7509 7.25291 42.5374 6.75999L41.6899 6.56999ZM19.9124 15.505C19.4478 15.437 18.9738 15.5305 18.5699 15.77H18.5349C17.5974 16.32 16.7524 17.0125 16.0324 17.8275C15.4324 18.52 15.1074 19.22 15.0224 19.895C14.9724 20.295 15.0074 20.7 15.1249 21.0825L15.1699 21.1075C15.8449 23.09 16.7249 24.9975 17.7999 26.7925C19.1866 29.3133 20.8923 31.645 22.8749 33.73L22.9349 33.815L23.0299 33.885L23.0874 33.9525L23.1574 34.0125C25.2499 36.0008 27.587 37.7146 30.1124 39.1125C32.9999 40.685 34.7524 41.4275 35.8049 41.7375V41.7525C36.1124 41.8475 36.3924 41.89 36.6749 41.89C37.5717 41.8257 38.4207 41.461 39.0849 40.855C39.8974 40.135 40.5849 39.2875 41.1199 38.345V38.3275C41.6224 37.3775 41.4524 36.4825 40.7274 35.875C39.2724 34.601 37.6975 33.4708 36.0249 32.5C34.9049 31.8925 33.7674 32.26 33.3074 32.875L32.3249 34.115C31.8199 34.73 30.9049 34.645 30.9049 34.645L30.8799 34.66C24.0524 32.9175 22.2299 26.005 22.2299 26.005C22.2299 26.005 22.1449 25.065 22.7774 24.585L24.0074 23.595C24.5974 23.115 25.0074 21.98 24.3749 20.86C23.4063 19.1886 22.2786 17.6146 21.0074 16.16C20.7293 15.8184 20.3399 15.5857 19.9074 15.5025M31.4474 12.5C31.1159 12.5 30.7979 12.6317 30.5635 12.8661C30.3291 13.1005 30.1974 13.4185 30.1974 13.75C30.1974 14.0815 30.3291 14.3995 30.5635 14.6339C30.7979 14.8683 31.1159 15 31.4474 15C34.6099 15 37.2349 16.0325 39.3124 18.0125C40.3799 19.095 41.2124 20.3775 41.7574 21.7825C42.3049 23.19 42.5549 24.6925 42.4899 26.1975C42.483 26.3616 42.5085 26.5255 42.565 26.6798C42.6214 26.8341 42.7077 26.9758 42.8189 27.0968C43.0435 27.341 43.3559 27.4861 43.6874 27.5C44.0189 27.5139 44.3424 27.3956 44.5867 27.171C44.8309 26.9464 44.976 26.634 44.9899 26.3025C45.0645 24.4514 44.7573 22.6047 44.0874 20.8775C43.4144 19.1415 42.3896 17.5634 41.0774 16.2425L41.0524 16.2175C38.4749 13.755 35.2124 12.5 31.4474 12.5ZM31.3624 16.61C31.0309 16.61 30.7129 16.7417 30.4785 16.9761C30.2441 17.2105 30.1124 17.5285 30.1124 17.86C30.1124 18.1915 30.2441 18.5095 30.4785 18.7439C30.7129 18.9783 31.0309 19.11 31.3624 19.11H31.4049C33.6849 19.2725 35.3449 20.0325 36.5074 21.28C37.6999 22.565 38.3174 24.1625 38.2699 26.1375C38.2623 26.469 38.3867 26.79 38.6157 27.0298C38.8447 27.2696 39.1596 27.4086 39.4912 27.4162C39.8227 27.4239 40.1436 27.2995 40.3835 27.0705C40.6233 26.8414 40.7623 26.5265 40.7699 26.195C40.8299 23.6025 39.9949 21.365 38.3399 19.58V19.575C36.6474 17.76 34.3249 16.8 31.5299 16.6125L31.4874 16.6075L31.3624 16.61ZM31.3149 20.7975C31.1476 20.7827 30.9791 20.8018 30.8193 20.8536C30.6596 20.9055 30.5119 20.9889 30.3852 21.0991C30.2584 21.2092 30.1551 21.3438 30.0815 21.4947C30.0079 21.6457 29.9655 21.8099 29.9567 21.9776C29.948 22.1453 29.9731 22.3131 30.0307 22.4708C30.0882 22.6286 30.1769 22.7732 30.2915 22.8959C30.4062 23.0186 30.5444 23.117 30.6979 23.1851C30.8513 23.2533 31.017 23.2898 31.1849 23.2925C32.2299 23.3475 32.8974 23.6625 33.3174 24.085C33.7399 24.51 34.0549 25.1925 34.1124 26.26C34.1155 26.4277 34.1524 26.5931 34.2208 26.7463C34.2892 26.8995 34.3877 27.0374 34.5105 27.1517C34.6333 27.266 34.7779 27.3545 34.9356 27.4117C35.0933 27.469 35.2609 27.4939 35.4285 27.485C35.596 27.4761 35.7601 27.4336 35.9108 27.3599C36.0616 27.2863 36.196 27.183 36.306 27.0564C36.416 26.9297 36.4994 26.7822 36.5512 26.6226C36.6029 26.463 36.6221 26.2946 36.6074 26.1275C36.5274 24.6275 36.0574 23.3025 35.0949 22.3275C34.1274 21.3525 32.8099 20.8775 31.3149 20.7975Z" fill="url('#paint0_linear_152_25')"></path>
<defs>
<linearGradient id="paint0_linear_152_25" x1="6.2522" y1="30.8419" x2="53.2426" y2="30.8419" gradientUnits="userSpaceOnUse">
<stop stop-color="white"></stop>
<stop offset="0.539" stop-color="#AEAEAE"></stop>
<stop offset="1" stop-color="white"></stop>
</linearGradient>
</defs>
</svg>
