<svg width="40" height="40" viewBox="0 0 40 40" fill="none" xmlns="http://www.w3.org/2000/svg">
<path fill-rule="evenodd" clip-rule="evenodd" d="M34.2772 7.61068C34.4012 7.48672 34.4995 7.33954 34.5666 7.17757C34.6337 7.0156 34.6682 6.842 34.6682 6.66668C34.6682 6.49137 34.6337 6.31777 34.5666 6.15579C34.4995 5.99382 34.4012 5.84665 34.2772 5.72268C34.1533 5.59871 34.0061 5.50038 33.8441 5.43329C33.6821 5.3662 33.5085 5.33167 33.3332 5.33167C33.1579 5.33167 32.9843 5.3662 32.8223 5.43329C32.6604 5.50038 32.5132 5.59871 32.3892 5.72268L19.9999 18.1147L7.61056 5.72268C7.48659 5.59871 7.33942 5.50038 7.17745 5.43329C7.01548 5.3662 6.84188 5.33167 6.66656 5.33167C6.49124 5.33167 6.31764 5.3662 6.15567 5.43329C5.9937 5.50038 5.84653 5.59871 5.72256 5.72268C5.59859 5.84665 5.50026 5.99382 5.43317 6.15579C5.36607 6.31777 5.33154 6.49137 5.33154 6.66668C5.33154 6.842 5.36607 7.0156 5.43317 7.17757C5.50026 7.33954 5.59859 7.48672 5.72256 7.61068L18.1146 20L5.72256 32.3893C5.4722 32.6397 5.33154 32.9793 5.33154 33.3333C5.33154 33.6874 5.4722 34.027 5.72256 34.2773C5.97292 34.5277 6.31249 34.6684 6.66656 34.6684C7.02063 34.6684 7.3602 34.5277 7.61056 34.2773L19.9999 21.8853L32.3892 34.2773C32.6396 34.5277 32.9792 34.6684 33.3332 34.6684C33.6873 34.6684 34.0269 34.5277 34.2772 34.2773C34.5276 34.027 34.6682 33.6874 34.6682 33.3333C34.6682 32.9793 34.5276 32.6397 34.2772 32.3893L21.8852 20L34.2772 7.61068Z" fill="url(#paint0_linear_140_767)"/>
<defs>
<linearGradient id="paint0_linear_140_767" x1="5.33154" y1="20" x2="34.6682" y2="20" gradientUnits="userSpaceOnUse">
<stop stop-color="white"/>
<stop offset="0.539" stop-color="#AEAEAE"/>
<stop offset="1" stop-color="white"/>
</linearGradient>
</defs>
</svg>
