<svg xmlns="http://www.w3.org/2000/svg" width="40" height="40" fill="none"><path fill="url(#a)" fill-rule="evenodd" d="M6.29 14.8A13.4 13.4 0 0 1 19.64 2.5h.72A13.4 13.4 0 0 1 33.7 14.8c.3 3.74-.85 7.45-3.22 10.36l-8 9.77a3.23 3.23 0 0 1-5 0l-7.98-9.77A14.49 14.49 0 0 1 6.3 14.79Zm13.7-6.05a7.92 7.92 0 1 0 0 15.83 7.92 7.92 0 0 0 0-15.83Z" clip-rule="evenodd"/><defs><linearGradient id="a" x1="6.24" x2="33.76" y1="19.31" y2="19.31" gradientUnits="userSpaceOnUse"><stop offset=".12" stop-color="#D7B068"/><stop offset=".46" stop-color="#845903"/><stop offset="1" stop-color="#E5B108"/></linearGradient></defs></svg>